<?xml version="1.0" encoding="utf-8" standalone="no"?>
<!DOCTYPE svg PUBLIC "-//W3C//DTD SVG 1.1//EN"
  "http://www.w3.org/Graphics/SVG/1.1/DTD/svg11.dtd">
<svg xmlns:xlink="http://www.w3.org/1999/xlink" width="4320pt" height="720pt" viewBox="0 0 4320 720" xmlns="http://www.w3.org/2000/svg" version="1.1">
 <metadata>
  <rdf:RDF xmlns:dc="http://purl.org/dc/elements/1.1/" xmlns:cc="http://creativecommons.org/ns#" xmlns:rdf="http://www.w3.org/1999/02/22-rdf-syntax-ns#">
   <cc:Work>
    <dc:type rdf:resource="http://purl.org/dc/dcmitype/StillImage"/>
    <dc:date>2025-01-10T14:50:20.636134</dc:date>
    <dc:format>image/svg+xml</dc:format>
    <dc:creator>
     <cc:Agent>
      <dc:title>Matplotlib v3.8.2, https://matplotlib.org/</dc:title>
     </cc:Agent>
    </dc:creator>
   </cc:Work>
  </rdf:RDF>
 </metadata>
 <defs>
  <style type="text/css">*{stroke-linejoin: round; stroke-linecap: butt}</style>
 </defs>
 <g id="figure_1">
  <g id="patch_1">
   <path d="M 0 720 
L 4320 720 
L 4320 0 
L 0 0 
z
" style="fill: #ffffff"/>
  </g>
  <g id="axes_1">
   <g id="patch_2">
    <path d="M 540 640.8 
L 3888 640.8 
L 3888 86.4 
L 540 86.4 
z
" style="fill: #ffffff"/>
   </g>
   <g id="matplotlib.axis_1">
    <g id="xtick_1">
     <g id="line2d_1">
      <path d="M 599.369214 640.8 
L 599.369214 86.4 
" clip-path="url(#p7861b1779b)" style="fill: none; stroke: #b0b0b0; stroke-width: 0.8; stroke-linecap: square"/>
     </g>
     <g id="line2d_2">
      <defs>
       <path id="m610541e6dd" d="M 0 0 
L 0 3.5 
" style="stroke: #000000; stroke-width: 0.8"/>
      </defs>
      <g>
       <use xlink:href="#m610541e6dd" x="599.369214" y="640.8" style="stroke: #000000; stroke-width: 0.8"/>
      </g>
     </g>
     <g id="text_1">
      <!-- 2.68 -->
      <g transform="translate(588.236402 655.398438) scale(0.1 -0.1)">
       <defs>
        <path id="DejaVuSans-32" d="M 1228 531 
L 3431 531 
L 3431 0 
L 469 0 
L 469 531 
Q 828 903 1448 1529 
Q 2069 2156 2228 2338 
Q 2531 2678 2651 2914 
Q 2772 3150 2772 3378 
Q 2772 3750 2511 3984 
Q 2250 4219 1831 4219 
Q 1534 4219 1204 4116 
Q 875 4013 500 3803 
L 500 4441 
Q 881 4594 1212 4672 
Q 1544 4750 1819 4750 
Q 2544 4750 2975 4387 
Q 3406 4025 3406 3419 
Q 3406 3131 3298 2873 
Q 3191 2616 2906 2266 
Q 2828 2175 2409 1742 
Q 1991 1309 1228 531 
z
" transform="scale(0.015625)"/>
        <path id="DejaVuSans-2e" d="M 684 794 
L 1344 794 
L 1344 0 
L 684 0 
L 684 794 
z
" transform="scale(0.015625)"/>
        <path id="DejaVuSans-36" d="M 2113 2584 
Q 1688 2584 1439 2293 
Q 1191 2003 1191 1497 
Q 1191 994 1439 701 
Q 1688 409 2113 409 
Q 2538 409 2786 701 
Q 3034 994 3034 1497 
Q 3034 2003 2786 2293 
Q 2538 2584 2113 2584 
z
M 3366 4563 
L 3366 3988 
Q 3128 4100 2886 4159 
Q 2644 4219 2406 4219 
Q 1781 4219 1451 3797 
Q 1122 3375 1075 2522 
Q 1259 2794 1537 2939 
Q 1816 3084 2150 3084 
Q 2853 3084 3261 2657 
Q 3669 2231 3669 1497 
Q 3669 778 3244 343 
Q 2819 -91 2113 -91 
Q 1303 -91 875 529 
Q 447 1150 447 2328 
Q 447 3434 972 4092 
Q 1497 4750 2381 4750 
Q 2619 4750 2861 4703 
Q 3103 4656 3366 4563 
z
" transform="scale(0.015625)"/>
        <path id="DejaVuSans-38" d="M 2034 2216 
Q 1584 2216 1326 1975 
Q 1069 1734 1069 1313 
Q 1069 891 1326 650 
Q 1584 409 2034 409 
Q 2484 409 2743 651 
Q 3003 894 3003 1313 
Q 3003 1734 2745 1975 
Q 2488 2216 2034 2216 
z
M 1403 2484 
Q 997 2584 770 2862 
Q 544 3141 544 3541 
Q 544 4100 942 4425 
Q 1341 4750 2034 4750 
Q 2731 4750 3128 4425 
Q 3525 4100 3525 3541 
Q 3525 3141 3298 2862 
Q 3072 2584 2669 2484 
Q 3125 2378 3379 2068 
Q 3634 1759 3634 1313 
Q 3634 634 3220 271 
Q 2806 -91 2034 -91 
Q 1263 -91 848 271 
Q 434 634 434 1313 
Q 434 1759 690 2068 
Q 947 2378 1403 2484 
z
M 1172 3481 
Q 1172 3119 1398 2916 
Q 1625 2713 2034 2713 
Q 2441 2713 2670 2916 
Q 2900 3119 2900 3481 
Q 2900 3844 2670 4047 
Q 2441 4250 2034 4250 
Q 1625 4250 1398 4047 
Q 1172 3844 1172 3481 
z
" transform="scale(0.015625)"/>
       </defs>
       <use xlink:href="#DejaVuSans-32"/>
       <use xlink:href="#DejaVuSans-2e" x="63.623047"/>
       <use xlink:href="#DejaVuSans-36" x="95.410156"/>
       <use xlink:href="#DejaVuSans-38" x="159.033203"/>
      </g>
     </g>
    </g>
    <g id="xtick_2">
     <g id="line2d_3">
      <path d="M 1111.438753 640.8 
L 1111.438753 86.4 
" clip-path="url(#p7861b1779b)" style="fill: none; stroke: #b0b0b0; stroke-width: 0.8; stroke-linecap: square"/>
     </g>
     <g id="line2d_4">
      <g>
       <use xlink:href="#m610541e6dd" x="1111.438753" y="640.8" style="stroke: #000000; stroke-width: 0.8"/>
      </g>
     </g>
     <g id="text_2">
      <!-- 2.70 -->
      <g transform="translate(1100.30594 655.398438) scale(0.1 -0.1)">
       <defs>
        <path id="DejaVuSans-37" d="M 525 4666 
L 3525 4666 
L 3525 4397 
L 1831 0 
L 1172 0 
L 2766 4134 
L 525 4134 
L 525 4666 
z
" transform="scale(0.015625)"/>
        <path id="DejaVuSans-30" d="M 2034 4250 
Q 1547 4250 1301 3770 
Q 1056 3291 1056 2328 
Q 1056 1369 1301 889 
Q 1547 409 2034 409 
Q 2525 409 2770 889 
Q 3016 1369 3016 2328 
Q 3016 3291 2770 3770 
Q 2525 4250 2034 4250 
z
M 2034 4750 
Q 2819 4750 3233 4129 
Q 3647 3509 3647 2328 
Q 3647 1150 3233 529 
Q 2819 -91 2034 -91 
Q 1250 -91 836 529 
Q 422 1150 422 2328 
Q 422 3509 836 4129 
Q 1250 4750 2034 4750 
z
" transform="scale(0.015625)"/>
       </defs>
       <use xlink:href="#DejaVuSans-32"/>
       <use xlink:href="#DejaVuSans-2e" x="63.623047"/>
       <use xlink:href="#DejaVuSans-37" x="95.410156"/>
       <use xlink:href="#DejaVuSans-30" x="159.033203"/>
      </g>
     </g>
    </g>
    <g id="xtick_3">
     <g id="line2d_5">
      <path d="M 1623.508292 640.8 
L 1623.508292 86.4 
" clip-path="url(#p7861b1779b)" style="fill: none; stroke: #b0b0b0; stroke-width: 0.8; stroke-linecap: square"/>
     </g>
     <g id="line2d_6">
      <g>
       <use xlink:href="#m610541e6dd" x="1623.508292" y="640.8" style="stroke: #000000; stroke-width: 0.8"/>
      </g>
     </g>
     <g id="text_3">
      <!-- 2.72 -->
      <g transform="translate(1612.375479 655.398438) scale(0.1 -0.1)">
       <use xlink:href="#DejaVuSans-32"/>
       <use xlink:href="#DejaVuSans-2e" x="63.623047"/>
       <use xlink:href="#DejaVuSans-37" x="95.410156"/>
       <use xlink:href="#DejaVuSans-32" x="159.033203"/>
      </g>
     </g>
    </g>
    <g id="xtick_4">
     <g id="line2d_7">
      <path d="M 2135.57783 640.8 
L 2135.57783 86.4 
" clip-path="url(#p7861b1779b)" style="fill: none; stroke: #b0b0b0; stroke-width: 0.8; stroke-linecap: square"/>
     </g>
     <g id="line2d_8">
      <g>
       <use xlink:href="#m610541e6dd" x="2135.57783" y="640.8" style="stroke: #000000; stroke-width: 0.8"/>
      </g>
     </g>
     <g id="text_4">
      <!-- 2.74 -->
      <g transform="translate(2124.445018 655.398438) scale(0.1 -0.1)">
       <defs>
        <path id="DejaVuSans-34" d="M 2419 4116 
L 825 1625 
L 2419 1625 
L 2419 4116 
z
M 2253 4666 
L 3047 4666 
L 3047 1625 
L 3713 1625 
L 3713 1100 
L 3047 1100 
L 3047 0 
L 2419 0 
L 2419 1100 
L 313 1100 
L 313 1709 
L 2253 4666 
z
" transform="scale(0.015625)"/>
       </defs>
       <use xlink:href="#DejaVuSans-32"/>
       <use xlink:href="#DejaVuSans-2e" x="63.623047"/>
       <use xlink:href="#DejaVuSans-37" x="95.410156"/>
       <use xlink:href="#DejaVuSans-34" x="159.033203"/>
      </g>
     </g>
    </g>
    <g id="xtick_5">
     <g id="line2d_9">
      <path d="M 2647.647369 640.8 
L 2647.647369 86.4 
" clip-path="url(#p7861b1779b)" style="fill: none; stroke: #b0b0b0; stroke-width: 0.8; stroke-linecap: square"/>
     </g>
     <g id="line2d_10">
      <g>
       <use xlink:href="#m610541e6dd" x="2647.647369" y="640.8" style="stroke: #000000; stroke-width: 0.8"/>
      </g>
     </g>
     <g id="text_5">
      <!-- 2.76 -->
      <g transform="translate(2636.514557 655.398438) scale(0.1 -0.1)">
       <use xlink:href="#DejaVuSans-32"/>
       <use xlink:href="#DejaVuSans-2e" x="63.623047"/>
       <use xlink:href="#DejaVuSans-37" x="95.410156"/>
       <use xlink:href="#DejaVuSans-36" x="159.033203"/>
      </g>
     </g>
    </g>
    <g id="xtick_6">
     <g id="line2d_11">
      <path d="M 3159.716908 640.8 
L 3159.716908 86.4 
" clip-path="url(#p7861b1779b)" style="fill: none; stroke: #b0b0b0; stroke-width: 0.8; stroke-linecap: square"/>
     </g>
     <g id="line2d_12">
      <g>
       <use xlink:href="#m610541e6dd" x="3159.716908" y="640.8" style="stroke: #000000; stroke-width: 0.8"/>
      </g>
     </g>
     <g id="text_6">
      <!-- 2.78 -->
      <g transform="translate(3148.584095 655.398438) scale(0.1 -0.1)">
       <use xlink:href="#DejaVuSans-32"/>
       <use xlink:href="#DejaVuSans-2e" x="63.623047"/>
       <use xlink:href="#DejaVuSans-37" x="95.410156"/>
       <use xlink:href="#DejaVuSans-38" x="159.033203"/>
      </g>
     </g>
    </g>
    <g id="xtick_7">
     <g id="line2d_13">
      <path d="M 3671.786446 640.8 
L 3671.786446 86.4 
" clip-path="url(#p7861b1779b)" style="fill: none; stroke: #b0b0b0; stroke-width: 0.8; stroke-linecap: square"/>
     </g>
     <g id="line2d_14">
      <g>
       <use xlink:href="#m610541e6dd" x="3671.786446" y="640.8" style="stroke: #000000; stroke-width: 0.8"/>
      </g>
     </g>
     <g id="text_7">
      <!-- 2.80 -->
      <g transform="translate(3660.653634 655.398438) scale(0.1 -0.1)">
       <use xlink:href="#DejaVuSans-32"/>
       <use xlink:href="#DejaVuSans-2e" x="63.623047"/>
       <use xlink:href="#DejaVuSans-38" x="95.410156"/>
       <use xlink:href="#DejaVuSans-30" x="159.033203"/>
      </g>
     </g>
    </g>
    <g id="text_8">
     <!-- Simulation Time (ps) -->
     <g transform="translate(2162.275 669.076563) scale(0.1 -0.1)">
      <defs>
       <path id="DejaVuSans-53" d="M 3425 4513 
L 3425 3897 
Q 3066 4069 2747 4153 
Q 2428 4238 2131 4238 
Q 1616 4238 1336 4038 
Q 1056 3838 1056 3469 
Q 1056 3159 1242 3001 
Q 1428 2844 1947 2747 
L 2328 2669 
Q 3034 2534 3370 2195 
Q 3706 1856 3706 1288 
Q 3706 609 3251 259 
Q 2797 -91 1919 -91 
Q 1588 -91 1214 -16 
Q 841 59 441 206 
L 441 856 
Q 825 641 1194 531 
Q 1563 422 1919 422 
Q 2459 422 2753 634 
Q 3047 847 3047 1241 
Q 3047 1584 2836 1778 
Q 2625 1972 2144 2069 
L 1759 2144 
Q 1053 2284 737 2584 
Q 422 2884 422 3419 
Q 422 4038 858 4394 
Q 1294 4750 2059 4750 
Q 2388 4750 2728 4690 
Q 3069 4631 3425 4513 
z
" transform="scale(0.015625)"/>
       <path id="DejaVuSans-69" d="M 603 3500 
L 1178 3500 
L 1178 0 
L 603 0 
L 603 3500 
z
M 603 4863 
L 1178 4863 
L 1178 4134 
L 603 4134 
L 603 4863 
z
" transform="scale(0.015625)"/>
       <path id="DejaVuSans-6d" d="M 3328 2828 
Q 3544 3216 3844 3400 
Q 4144 3584 4550 3584 
Q 5097 3584 5394 3201 
Q 5691 2819 5691 2113 
L 5691 0 
L 5113 0 
L 5113 2094 
Q 5113 2597 4934 2840 
Q 4756 3084 4391 3084 
Q 3944 3084 3684 2787 
Q 3425 2491 3425 1978 
L 3425 0 
L 2847 0 
L 2847 2094 
Q 2847 2600 2669 2842 
Q 2491 3084 2119 3084 
Q 1678 3084 1418 2786 
Q 1159 2488 1159 1978 
L 1159 0 
L 581 0 
L 581 3500 
L 1159 3500 
L 1159 2956 
Q 1356 3278 1631 3431 
Q 1906 3584 2284 3584 
Q 2666 3584 2933 3390 
Q 3200 3197 3328 2828 
z
" transform="scale(0.015625)"/>
       <path id="DejaVuSans-75" d="M 544 1381 
L 544 3500 
L 1119 3500 
L 1119 1403 
Q 1119 906 1312 657 
Q 1506 409 1894 409 
Q 2359 409 2629 706 
Q 2900 1003 2900 1516 
L 2900 3500 
L 3475 3500 
L 3475 0 
L 2900 0 
L 2900 538 
Q 2691 219 2414 64 
Q 2138 -91 1772 -91 
Q 1169 -91 856 284 
Q 544 659 544 1381 
z
M 1991 3584 
L 1991 3584 
z
" transform="scale(0.015625)"/>
       <path id="DejaVuSans-6c" d="M 603 4863 
L 1178 4863 
L 1178 0 
L 603 0 
L 603 4863 
z
" transform="scale(0.015625)"/>
       <path id="DejaVuSans-61" d="M 2194 1759 
Q 1497 1759 1228 1600 
Q 959 1441 959 1056 
Q 959 750 1161 570 
Q 1363 391 1709 391 
Q 2188 391 2477 730 
Q 2766 1069 2766 1631 
L 2766 1759 
L 2194 1759 
z
M 3341 1997 
L 3341 0 
L 2766 0 
L 2766 531 
Q 2569 213 2275 61 
Q 1981 -91 1556 -91 
Q 1019 -91 701 211 
Q 384 513 384 1019 
Q 384 1609 779 1909 
Q 1175 2209 1959 2209 
L 2766 2209 
L 2766 2266 
Q 2766 2663 2505 2880 
Q 2244 3097 1772 3097 
Q 1472 3097 1187 3025 
Q 903 2953 641 2809 
L 641 3341 
Q 956 3463 1253 3523 
Q 1550 3584 1831 3584 
Q 2591 3584 2966 3190 
Q 3341 2797 3341 1997 
z
" transform="scale(0.015625)"/>
       <path id="DejaVuSans-74" d="M 1172 4494 
L 1172 3500 
L 2356 3500 
L 2356 3053 
L 1172 3053 
L 1172 1153 
Q 1172 725 1289 603 
Q 1406 481 1766 481 
L 2356 481 
L 2356 0 
L 1766 0 
Q 1100 0 847 248 
Q 594 497 594 1153 
L 594 3053 
L 172 3053 
L 172 3500 
L 594 3500 
L 594 4494 
L 1172 4494 
z
" transform="scale(0.015625)"/>
       <path id="DejaVuSans-6f" d="M 1959 3097 
Q 1497 3097 1228 2736 
Q 959 2375 959 1747 
Q 959 1119 1226 758 
Q 1494 397 1959 397 
Q 2419 397 2687 759 
Q 2956 1122 2956 1747 
Q 2956 2369 2687 2733 
Q 2419 3097 1959 3097 
z
M 1959 3584 
Q 2709 3584 3137 3096 
Q 3566 2609 3566 1747 
Q 3566 888 3137 398 
Q 2709 -91 1959 -91 
Q 1206 -91 779 398 
Q 353 888 353 1747 
Q 353 2609 779 3096 
Q 1206 3584 1959 3584 
z
" transform="scale(0.015625)"/>
       <path id="DejaVuSans-6e" d="M 3513 2113 
L 3513 0 
L 2938 0 
L 2938 2094 
Q 2938 2591 2744 2837 
Q 2550 3084 2163 3084 
Q 1697 3084 1428 2787 
Q 1159 2491 1159 1978 
L 1159 0 
L 581 0 
L 581 3500 
L 1159 3500 
L 1159 2956 
Q 1366 3272 1645 3428 
Q 1925 3584 2291 3584 
Q 2894 3584 3203 3211 
Q 3513 2838 3513 2113 
z
" transform="scale(0.015625)"/>
       <path id="DejaVuSans-20" transform="scale(0.015625)"/>
       <path id="DejaVuSans-54" d="M -19 4666 
L 3928 4666 
L 3928 4134 
L 2272 4134 
L 2272 0 
L 1638 0 
L 1638 4134 
L -19 4134 
L -19 4666 
z
" transform="scale(0.015625)"/>
       <path id="DejaVuSans-65" d="M 3597 1894 
L 3597 1613 
L 953 1613 
Q 991 1019 1311 708 
Q 1631 397 2203 397 
Q 2534 397 2845 478 
Q 3156 559 3463 722 
L 3463 178 
Q 3153 47 2828 -22 
Q 2503 -91 2169 -91 
Q 1331 -91 842 396 
Q 353 884 353 1716 
Q 353 2575 817 3079 
Q 1281 3584 2069 3584 
Q 2775 3584 3186 3129 
Q 3597 2675 3597 1894 
z
M 3022 2063 
Q 3016 2534 2758 2815 
Q 2500 3097 2075 3097 
Q 1594 3097 1305 2825 
Q 1016 2553 972 2059 
L 3022 2063 
z
" transform="scale(0.015625)"/>
       <path id="DejaVuSans-28" d="M 1984 4856 
Q 1566 4138 1362 3434 
Q 1159 2731 1159 2009 
Q 1159 1288 1364 580 
Q 1569 -128 1984 -844 
L 1484 -844 
Q 1016 -109 783 600 
Q 550 1309 550 2009 
Q 550 2706 781 3412 
Q 1013 4119 1484 4856 
L 1984 4856 
z
" transform="scale(0.015625)"/>
       <path id="DejaVuSans-70" d="M 1159 525 
L 1159 -1331 
L 581 -1331 
L 581 3500 
L 1159 3500 
L 1159 2969 
Q 1341 3281 1617 3432 
Q 1894 3584 2278 3584 
Q 2916 3584 3314 3078 
Q 3713 2572 3713 1747 
Q 3713 922 3314 415 
Q 2916 -91 2278 -91 
Q 1894 -91 1617 61 
Q 1341 213 1159 525 
z
M 3116 1747 
Q 3116 2381 2855 2742 
Q 2594 3103 2138 3103 
Q 1681 3103 1420 2742 
Q 1159 2381 1159 1747 
Q 1159 1113 1420 752 
Q 1681 391 2138 391 
Q 2594 391 2855 752 
Q 3116 1113 3116 1747 
z
" transform="scale(0.015625)"/>
       <path id="DejaVuSans-73" d="M 2834 3397 
L 2834 2853 
Q 2591 2978 2328 3040 
Q 2066 3103 1784 3103 
Q 1356 3103 1142 2972 
Q 928 2841 928 2578 
Q 928 2378 1081 2264 
Q 1234 2150 1697 2047 
L 1894 2003 
Q 2506 1872 2764 1633 
Q 3022 1394 3022 966 
Q 3022 478 2636 193 
Q 2250 -91 1575 -91 
Q 1294 -91 989 -36 
Q 684 19 347 128 
L 347 722 
Q 666 556 975 473 
Q 1284 391 1588 391 
Q 1994 391 2212 530 
Q 2431 669 2431 922 
Q 2431 1156 2273 1281 
Q 2116 1406 1581 1522 
L 1381 1569 
Q 847 1681 609 1914 
Q 372 2147 372 2553 
Q 372 3047 722 3315 
Q 1072 3584 1716 3584 
Q 2034 3584 2315 3537 
Q 2597 3491 2834 3397 
z
" transform="scale(0.015625)"/>
       <path id="DejaVuSans-29" d="M 513 4856 
L 1013 4856 
Q 1481 4119 1714 3412 
Q 1947 2706 1947 2009 
Q 1947 1309 1714 600 
Q 1481 -109 1013 -844 
L 513 -844 
Q 928 -128 1133 580 
Q 1338 1288 1338 2009 
Q 1338 2731 1133 3434 
Q 928 4138 513 4856 
z
" transform="scale(0.015625)"/>
      </defs>
      <use xlink:href="#DejaVuSans-53"/>
      <use xlink:href="#DejaVuSans-69" x="63.476562"/>
      <use xlink:href="#DejaVuSans-6d" x="91.259766"/>
      <use xlink:href="#DejaVuSans-75" x="188.671875"/>
      <use xlink:href="#DejaVuSans-6c" x="252.050781"/>
      <use xlink:href="#DejaVuSans-61" x="279.833984"/>
      <use xlink:href="#DejaVuSans-74" x="341.113281"/>
      <use xlink:href="#DejaVuSans-69" x="380.322266"/>
      <use xlink:href="#DejaVuSans-6f" x="408.105469"/>
      <use xlink:href="#DejaVuSans-6e" x="469.287109"/>
      <use xlink:href="#DejaVuSans-20" x="532.666016"/>
      <use xlink:href="#DejaVuSans-54" x="564.453125"/>
      <use xlink:href="#DejaVuSans-69" x="622.412109"/>
      <use xlink:href="#DejaVuSans-6d" x="650.195312"/>
      <use xlink:href="#DejaVuSans-65" x="747.607422"/>
      <use xlink:href="#DejaVuSans-20" x="809.130859"/>
      <use xlink:href="#DejaVuSans-28" x="840.917969"/>
      <use xlink:href="#DejaVuSans-70" x="879.931641"/>
      <use xlink:href="#DejaVuSans-73" x="943.408203"/>
      <use xlink:href="#DejaVuSans-29" x="995.507812"/>
     </g>
    </g>
    <g id="text_9">
     <!-- 1e8 -->
     <g transform="translate(3869.121875 668.076563) scale(0.1 -0.1)">
      <defs>
       <path id="DejaVuSans-31" d="M 794 531 
L 1825 531 
L 1825 4091 
L 703 3866 
L 703 4441 
L 1819 4666 
L 2450 4666 
L 2450 531 
L 3481 531 
L 3481 0 
L 794 0 
L 794 531 
z
" transform="scale(0.015625)"/>
      </defs>
      <use xlink:href="#DejaVuSans-31"/>
      <use xlink:href="#DejaVuSans-65" x="63.623047"/>
      <use xlink:href="#DejaVuSans-38" x="125.146484"/>
     </g>
    </g>
   </g>
   <g id="matplotlib.axis_2">
    <g id="ytick_1">
     <g id="line2d_15">
      <path d="M 540 551.786778 
L 3888 551.786778 
" clip-path="url(#p7861b1779b)" style="fill: none; stroke: #b0b0b0; stroke-width: 0.8; stroke-linecap: square"/>
     </g>
     <g id="line2d_16">
      <defs>
       <path id="mb8466deb01" d="M 0 0 
L -3.5 0 
" style="stroke: #000000; stroke-width: 0.8"/>
      </defs>
      <g>
       <use xlink:href="#mb8466deb01" x="540" y="551.786778" style="stroke: #000000; stroke-width: 0.8"/>
      </g>
     </g>
     <g id="text_10">
      <!-- 50 -->
      <g transform="translate(520.275 555.585997) scale(0.1 -0.1)">
       <defs>
        <path id="DejaVuSans-35" d="M 691 4666 
L 3169 4666 
L 3169 4134 
L 1269 4134 
L 1269 2991 
Q 1406 3038 1543 3061 
Q 1681 3084 1819 3084 
Q 2600 3084 3056 2656 
Q 3513 2228 3513 1497 
Q 3513 744 3044 326 
Q 2575 -91 1722 -91 
Q 1428 -91 1123 -41 
Q 819 9 494 109 
L 494 744 
Q 775 591 1075 516 
Q 1375 441 1709 441 
Q 2250 441 2565 725 
Q 2881 1009 2881 1497 
Q 2881 1984 2565 2268 
Q 2250 2553 1709 2553 
Q 1456 2553 1204 2497 
Q 953 2441 691 2322 
L 691 4666 
z
" transform="scale(0.015625)"/>
       </defs>
       <use xlink:href="#DejaVuSans-35"/>
       <use xlink:href="#DejaVuSans-30" x="63.623047"/>
      </g>
     </g>
    </g>
    <g id="ytick_2">
     <g id="line2d_17">
      <path d="M 540 433.113825 
L 3888 433.113825 
" clip-path="url(#p7861b1779b)" style="fill: none; stroke: #b0b0b0; stroke-width: 0.8; stroke-linecap: square"/>
     </g>
     <g id="line2d_18">
      <g>
       <use xlink:href="#mb8466deb01" x="540" y="433.113825" style="stroke: #000000; stroke-width: 0.8"/>
      </g>
     </g>
     <g id="text_11">
      <!-- 100 -->
      <g transform="translate(513.9125 436.913044) scale(0.1 -0.1)">
       <use xlink:href="#DejaVuSans-31"/>
       <use xlink:href="#DejaVuSans-30" x="63.623047"/>
       <use xlink:href="#DejaVuSans-30" x="127.246094"/>
      </g>
     </g>
    </g>
    <g id="ytick_3">
     <g id="line2d_19">
      <path d="M 540 314.440872 
L 3888 314.440872 
" clip-path="url(#p7861b1779b)" style="fill: none; stroke: #b0b0b0; stroke-width: 0.8; stroke-linecap: square"/>
     </g>
     <g id="line2d_20">
      <g>
       <use xlink:href="#mb8466deb01" x="540" y="314.440872" style="stroke: #000000; stroke-width: 0.8"/>
      </g>
     </g>
     <g id="text_12">
      <!-- 150 -->
      <g transform="translate(513.9125 318.24009) scale(0.1 -0.1)">
       <use xlink:href="#DejaVuSans-31"/>
       <use xlink:href="#DejaVuSans-35" x="63.623047"/>
       <use xlink:href="#DejaVuSans-30" x="127.246094"/>
      </g>
     </g>
    </g>
    <g id="ytick_4">
     <g id="line2d_21">
      <path d="M 540 195.767918 
L 3888 195.767918 
" clip-path="url(#p7861b1779b)" style="fill: none; stroke: #b0b0b0; stroke-width: 0.8; stroke-linecap: square"/>
     </g>
     <g id="line2d_22">
      <g>
       <use xlink:href="#mb8466deb01" x="540" y="195.767918" style="stroke: #000000; stroke-width: 0.8"/>
      </g>
     </g>
     <g id="text_13">
      <!-- 200 -->
      <g transform="translate(513.9125 199.567137) scale(0.1 -0.1)">
       <use xlink:href="#DejaVuSans-32"/>
       <use xlink:href="#DejaVuSans-30" x="63.623047"/>
       <use xlink:href="#DejaVuSans-30" x="127.246094"/>
      </g>
     </g>
    </g>
    <g id="text_14">
     <!-- Power (uW) -->
     <g transform="translate(507.832813 392.317187) rotate(-90) scale(0.1 -0.1)">
      <defs>
       <path id="DejaVuSans-50" d="M 1259 4147 
L 1259 2394 
L 2053 2394 
Q 2494 2394 2734 2622 
Q 2975 2850 2975 3272 
Q 2975 3691 2734 3919 
Q 2494 4147 2053 4147 
L 1259 4147 
z
M 628 4666 
L 2053 4666 
Q 2838 4666 3239 4311 
Q 3641 3956 3641 3272 
Q 3641 2581 3239 2228 
Q 2838 1875 2053 1875 
L 1259 1875 
L 1259 0 
L 628 0 
L 628 4666 
z
" transform="scale(0.015625)"/>
       <path id="DejaVuSans-77" d="M 269 3500 
L 844 3500 
L 1563 769 
L 2278 3500 
L 2956 3500 
L 3675 769 
L 4391 3500 
L 4966 3500 
L 4050 0 
L 3372 0 
L 2619 2869 
L 1863 0 
L 1184 0 
L 269 3500 
z
" transform="scale(0.015625)"/>
       <path id="DejaVuSans-72" d="M 2631 2963 
Q 2534 3019 2420 3045 
Q 2306 3072 2169 3072 
Q 1681 3072 1420 2755 
Q 1159 2438 1159 1844 
L 1159 0 
L 581 0 
L 581 3500 
L 1159 3500 
L 1159 2956 
Q 1341 3275 1631 3429 
Q 1922 3584 2338 3584 
Q 2397 3584 2469 3576 
Q 2541 3569 2628 3553 
L 2631 2963 
z
" transform="scale(0.015625)"/>
       <path id="DejaVuSans-57" d="M 213 4666 
L 850 4666 
L 1831 722 
L 2809 4666 
L 3519 4666 
L 4500 722 
L 5478 4666 
L 6119 4666 
L 4947 0 
L 4153 0 
L 3169 4050 
L 2175 0 
L 1381 0 
L 213 4666 
z
" transform="scale(0.015625)"/>
      </defs>
      <use xlink:href="#DejaVuSans-50"/>
      <use xlink:href="#DejaVuSans-6f" x="56.677734"/>
      <use xlink:href="#DejaVuSans-77" x="117.859375"/>
      <use xlink:href="#DejaVuSans-65" x="199.646484"/>
      <use xlink:href="#DejaVuSans-72" x="261.169922"/>
      <use xlink:href="#DejaVuSans-20" x="302.283203"/>
      <use xlink:href="#DejaVuSans-28" x="334.070312"/>
      <use xlink:href="#DejaVuSans-75" x="373.083984"/>
      <use xlink:href="#DejaVuSans-57" x="436.462891"/>
      <use xlink:href="#DejaVuSans-29" x="535.339844"/>
     </g>
    </g>
   </g>
   <g id="line2d_23">
    <path d="M 692.181818 565.971859 
L 698.582687 615.599058 
L 704.983557 576.639473 
L 711.384426 615.596846 
L 717.785295 402.961319 
L 724.186164 160.055105 
L 730.587034 555.946705 
L 736.987903 160.049739 
L 743.388772 549.835585 
L 749.789641 615.583691 
L 756.190511 582.297426 
L 762.59138 615.582674 
L 768.992249 519.242851 
L 775.393118 160.055284 
L 781.793987 550.331498 
L 788.194857 160.04863 
L 794.595726 532.744196 
L 800.996595 615.582218 
L 807.397464 582.337197 
L 813.798334 615.581342 
L 820.199203 503.825131 
L 826.600072 160.059305 
L 833.000941 550.366895 
L 839.401811 160.052063 
L 845.80268 536.668859 
L 852.203549 615.583987 
L 858.604418 582.31256 
L 865.005287 615.582864 
L 871.406157 387.801957 
L 877.807026 387.818273 
L 884.207895 551.072918 
L 890.608764 387.810795 
L 897.009634 400.918769 
L 903.410503 160.045323 
L 909.811372 559.451736 
L 916.212241 160.039577 
L 922.613111 535.63002 
L 929.01398 615.594601 
L 935.414849 576.586777 
L 941.815718 615.59196 
L 948.216588 331.799241 
L 954.617457 387.820135 
L 961.018326 551.024175 
L 967.419195 387.813316 
L 973.820064 381.830063 
L 980.220934 387.798453 
L 986.621803 560.05028 
L 993.022672 387.792847 
L 999.423541 382.949194 
L 1005.824411 111.606148 
L 1012.22528 559.42995 
L 1018.626149 111.600439 
L 1025.027018 563.476251 
L 1031.427888 615.591191 
L 1037.828757 576.642417 
L 1044.229626 615.58876 
L 1050.630495 451.429859 
L 1057.031364 160.064835 
L 1063.432234 556.010659 
L 1069.833103 160.059208 
L 1076.233972 544.745367 
L 1082.634841 615.59785 
L 1089.035711 582.262896 
L 1095.43658 615.596432 
L 1101.837449 461.497487 
L 1108.238318 160.057571 
L 1114.639188 550.326507 
L 1121.040057 160.050953 
L 1127.440926 538.12474 
L 1133.841795 615.587279 
L 1140.242665 582.305251 
L 1146.643534 615.586223 
L 1153.044403 453.896267 
L 1159.445272 160.057763 
L 1165.846141 550.342211 
L 1172.247011 160.051047 
L 1178.64788 536.920666 
L 1185.048749 615.588756 
L 1191.449618 582.317959 
L 1197.850488 615.587829 
L 1204.251357 455.312249 
L 1210.652226 111.62947 
L 1217.053095 550.327861 
L 1223.453965 111.622531 
L 1229.854834 565.667841 
L 1236.255703 615.595005 
L 1242.656572 582.375329 
L 1249.057441 615.593868 
L 1255.458311 463.378021 
L 1261.85918 160.067131 
L 1268.260049 555.996607 
L 1274.660918 160.061419 
L 1281.061788 547.722291 
L 1287.462657 615.597158 
L 1293.863526 582.269921 
L 1300.264395 615.595838 
L 1306.665265 357.120425 
L 1313.066134 387.813863 
L 1319.467003 551.05509 
L 1325.867872 387.807071 
L 1332.268742 378.912793 
L 1338.669611 387.793884 
L 1345.07048 560.109677 
L 1351.471349 387.788488 
L 1357.872218 343.175109 
L 1364.273088 111.607275 
L 1370.673957 559.440344 
L 1377.074826 111.601663 
L 1383.475695 561.356522 
L 1389.876565 615.593354 
L 1396.277434 576.640672 
L 1402.678303 615.591103 
L 1409.079172 455.324469 
L 1415.480042 160.060972 
L 1421.880911 556.040284 
L 1428.28178 160.055415 
L 1434.682649 532.156263 
L 1441.083518 615.584858 
L 1447.484388 582.277281 
L 1453.885257 615.583631 
L 1460.286126 404.250055 
L 1466.686995 160.05498 
L 1473.087865 550.375809 
L 1479.488734 160.048538 
L 1485.889603 527.900913 
L 1492.290472 615.587673 
L 1498.691342 582.310697 
L 1505.092211 615.586721 
L 1511.49308 485.988392 
L 1517.893949 160.058996 
L 1524.294819 550.325465 
L 1530.695688 160.052374 
L 1537.096557 523.525885 
L 1543.497426 615.584468 
L 1549.898295 582.319083 
L 1556.299165 615.583591 
L 1562.700034 454.440376 
L 1569.100903 111.628444 
L 1575.501772 550.365377 
L 1581.902642 111.621444 
L 1588.303511 566.171729 
L 1594.70438 615.591301 
L 1601.105249 582.376055 
L 1607.506119 615.590375 
L 1613.906988 431.630922 
L 1620.307857 160.060427 
L 1626.708726 556.041659 
L 1633.109595 160.054788 
L 1639.510465 525.98616 
L 1645.911334 615.588163 
L 1652.312203 582.281866 
L 1658.713072 615.586932 
L 1665.113942 358.260957 
L 1671.514811 387.818778 
L 1677.91568 551.011089 
L 1684.316549 387.812035 
L 1690.717419 373.081628 
L 1697.118288 387.796309 
L 1703.519157 560.109083 
L 1709.920026 387.790441 
L 1716.320896 363.818014 
L 1722.721765 111.605739 
L 1729.122634 559.46254 
L 1735.523503 111.6 
L 1741.924372 549.326406 
L 1748.325242 615.592586 
L 1754.726111 576.666809 
L 1761.12698 615.59032 
L 1767.527849 446.729513 
L 1773.928719 160.065284 
L 1780.329588 556.029865 
L 1786.730457 160.059735 
L 1793.131326 537.097132 
L 1799.532196 615.59262 
L 1805.933065 582.256356 
L 1812.333934 615.59131 
L 1818.734803 418.064286 
L 1825.135673 160.056353 
L 1831.536542 550.385225 
L 1837.937411 160.05 
L 1844.33828 526.406595 
L 1850.739149 615.586402 
L 1857.140019 582.317902 
L 1863.540888 615.585493 
L 1869.941757 435.885492 
L 1876.342626 160.056131 
L 1882.743496 550.327158 
L 1889.144365 160.049485 
L 1895.545234 539.611076 
L 1901.946103 615.586554 
L 1908.346973 582.3153 
L 1914.747842 615.585681 
L 1921.148711 416.628329 
L 1927.54958 111.627983 
L 1933.950449 550.352983 
L 1940.351319 111.621061 
L 1946.752188 557.526405 
L 1953.153057 615.593204 
L 1959.553926 582.386433 
L 1965.954796 615.592322 
L 1972.355665 431.769337 
L 1978.756534 160.064316 
L 1985.157403 555.992917 
L 1991.558273 160.058766 
L 1997.959142 546.834506 
L 2004.360011 615.593783 
L 2010.76088 582.265672 
L 2017.16175 615.592624 
L 2023.562619 336.400076 
L 2029.963488 387.818637 
L 2036.364357 551.050363 
L 2042.765226 387.812081 
L 2049.166096 364.318923 
L 2055.566965 387.801247 
L 2061.967834 560.066586 
L 2068.368703 387.795865 
L 2074.769573 377.863344 
L 2081.170442 111.607898 
L 2087.571311 559.430782 
L 2093.97218 111.602158 
L 2100.37305 550.796449 
L 2106.773919 615.593043 
L 2113.174788 576.643177 
L 2119.575657 615.590764 
L 2125.976526 434.739635 
L 2132.377396 160.065608 
L 2138.778265 556.008673 
L 2145.179134 160.060041 
L 2151.580003 534.757647 
L 2157.980873 615.590002 
L 2164.381742 582.262198 
L 2170.782611 615.588577 
L 2177.18348 391.503623 
L 2183.58435 160.054885 
L 2189.985219 550.341488 
L 2196.386088 160.048351 
L 2202.786957 537.568978 
L 2209.187827 615.58698 
L 2215.588696 582.311847 
L 2221.989565 615.585971 
L 2228.390434 463.132137 
L 2234.791303 160.057966 
L 2241.192173 550.337262 
L 2247.593042 160.051347 
L 2253.993911 530.685412 
L 2260.39478 615.587704 
L 2266.79565 582.324522 
L 2273.196519 615.586716 
L 2279.597388 452.5885 
L 2285.998257 111.630253 
L 2292.399127 550.34732 
L 2298.799996 111.623232 
L 2305.200865 560.79693 
L 2311.601734 615.592646 
L 2318.002603 582.393588 
L 2324.403473 615.591703 
L 2330.804342 441.467144 
L 2337.205211 160.068513 
L 2343.60608 556.03837 
L 2350.00695 160.062675 
L 2356.407819 544.852799 
L 2362.808688 615.59985 
L 2369.209557 582.25105 
L 2375.610427 615.59839 
L 2382.011296 378.380895 
L 2388.412165 387.821363 
L 2394.813034 551.009356 
L 2401.213904 387.814454 
L 2407.614773 438.207051 
L 2414.015642 387.802748 
L 2420.416511 560.031864 
L 2426.81738 387.797349 
L 2433.21825 387.936798 
L 2439.619119 111.607131 
L 2446.019988 559.4431 
L 2452.420857 111.601627 
L 2458.821727 548.258846 
L 2465.222596 615.593934 
L 2471.623465 576.688514 
L 2478.024334 615.591258 
L 2484.425204 452.158677 
L 2490.826073 160.067232 
L 2497.226942 556.084335 
L 2503.627811 160.061401 
L 2510.02868 547.256701 
L 2516.42955 615.596809 
L 2522.830419 582.256214 
L 2529.231288 615.595287 
L 2535.632157 421.655266 
L 2542.033027 111.627911 
L 2548.433896 550.398307 
L 2554.834765 111.620828 
L 2561.235634 560.532671 
L 2567.636504 615.592878 
L 2574.037373 582.388572 
L 2580.438242 615.591831 
L 2586.839111 455.769957 
L 2593.239981 160.070025 
L 2599.64085 555.989944 
L 2606.041719 160.064552 
L 2612.442588 545.24025 
L 2618.843457 615.6 
L 2625.244327 582.250677 
L 2631.645196 615.598502 
L 2638.046065 450.854895 
L 2644.446934 160.057935 
L 2650.847804 550.322633 
L 2657.248673 160.051453 
L 2663.649542 523.357835 
L 2670.050411 615.583674 
L 2676.451281 582.317279 
L 2682.85215 615.582654 
L 2689.253019 480.480268 
L 2695.653888 160.057318 
L 2702.054757 550.347106 
L 2708.455627 160.050626 
L 2714.856496 539.37877 
L 2721.257365 615.589525 
L 2727.658234 582.329078 
L 2734.059104 615.588622 
L 2740.459973 476.677723 
L 2746.860842 111.629191 
L 2753.261711 550.339821 
L 2759.662581 111.622215 
L 2766.06345 556.963061 
L 2772.464319 615.590721 
L 2778.865188 582.38708 
L 2785.266058 615.589779 
L 2791.666927 317.583086 
L 2798.067796 387.816337 
L 2804.468665 556.725203 
L 2810.869534 387.81052 
L 2817.270404 392.616178 
L 2823.671273 160.045862 
L 2830.072142 559.484969 
L 2836.473011 160.040011 
L 2842.873881 530.166529 
L 2849.27475 615.591749 
L 2855.675619 576.571803 
L 2862.076488 615.589299 
L 2868.477358 391.148947 
L 2874.878227 387.819008 
L 2881.279096 551.12526 
L 2887.679965 387.811773 
L 2894.080834 363.557031 
L 2900.481704 160.036154 
L 2906.882573 559.523761 
L 2913.283442 160.030673 
L 2919.684311 515.776914 
L 2926.085181 615.587483 
L 2932.48605 576.589723 
L 2938.886919 615.585004 
L 2945.287788 438.854948 
L 2951.688658 111.628695 
L 2958.089527 550.369018 
L 2964.490396 111.621821 
L 2970.891265 559.611165 
L 2977.292135 615.590648 
L 2983.693004 582.401601 
L 2990.093873 615.589783 
L 2996.494742 454.124439 
L 3002.895611 160.065373 
L 3009.296481 556.030327 
L 3015.69735 160.059587 
L 3022.098219 555.277407 
L 3028.499088 615.599414 
L 3034.899958 582.26413 
L 3041.300827 615.598088 
L 3047.701696 400.167574 
L 3054.102565 387.817962 
L 3060.503435 551.138651 
L 3066.904304 387.810725 
L 3073.305173 334.975686 
L 3079.706042 160.038232 
L 3086.106911 559.504604 
L 3092.507781 160.032592 
L 3098.90865 517.355351 
L 3105.309519 615.584192 
L 3111.710388 576.617801 
L 3118.111258 615.581834 
L 3124.512127 465.320278 
L 3130.912996 111.62794 
L 3137.313865 550.394453 
L 3143.714735 111.620905 
L 3150.115604 556.453345 
L 3156.516473 615.591557 
L 3162.917342 582.421433 
L 3169.318212 615.59088 
L 3175.719081 459.453156 
L 3182.11995 160.062056 
L 3188.520819 556.06085 
L 3194.921688 160.056153 
L 3201.322558 543.775556 
L 3207.723427 615.591952 
L 3214.124296 582.277646 
L 3220.525165 615.590783 
L 3226.926035 374.632471 
L 3233.326904 387.8172 
L 3239.727773 551.057553 
L 3246.128642 387.810151 
L 3252.529512 358.31335 
L 3258.930381 160.036225 
L 3265.33125 559.510403 
L 3271.732119 160.031086 
L 3278.132988 533.686031 
L 3284.533858 615.589757 
L 3290.934727 576.600473 
L 3297.335596 615.587322 
L 3303.736465 447.228946 
L 3310.137335 111.627524 
L 3316.538204 550.325331 
L 3322.939073 111.620539 
L 3329.339942 557.6677 
L 3335.740812 615.591534 
L 3342.141681 582.410602 
L 3348.54255 615.590766 
L 3354.943419 450.681107 
L 3361.344289 160.063788 
L 3367.745158 556.021802 
L 3374.146027 160.058147 
L 3380.546896 553.999531 
L 3386.947765 615.595764 
L 3393.348635 582.276244 
L 3399.749504 615.594529 
L 3406.150373 380.464569 
L 3412.551242 387.818559 
L 3418.952112 551.085303 
L 3425.352981 387.811487 
L 3431.75385 354.021612 
L 3438.154719 111.607273 
L 3444.555589 559.46281 
L 3450.956458 111.601726 
L 3457.357327 539.506009 
L 3463.758196 615.589841 
L 3470.159066 576.765705 
L 3476.559935 615.587251 
L 3482.960804 442.772134 
L 3489.361673 160.062521 
L 3495.762542 556.138216 
L 3502.163412 160.056744 
L 3508.564281 530.973597 
L 3514.96515 615.588663 
L 3521.366019 582.291107 
L 3527.766889 615.587555 
L 3534.167758 388.371896 
L 3540.568627 111.627805 
L 3546.969496 550.566136 
L 3553.370366 111.620125 
L 3559.771235 557.074128 
L 3566.172104 615.588479 
L 3572.572973 582.414998 
L 3578.973842 615.587704 
L 3585.374712 419.519927 
L 3591.775581 111.641988 
L 3598.17645 556.211069 
L 3604.577319 111.635778 
L 3610.978189 566.690934 
L 3617.379058 615.599864 
L 3623.779927 582.375073 
L 3630.180796 615.598762 
L 3636.581666 378.899973 
L 3642.982535 160.054646 
L 3649.383404 556.079144 
L 3655.784273 160.048982 
L 3662.185143 520.341177 
L 3668.586012 615.58525 
L 3674.986881 582.327998 
L 3681.38775 615.584337 
L 3687.788619 452.837232 
L 3694.189489 160.059849 
L 3700.590358 550.377677 
L 3706.991227 160.05274 
L 3713.392096 521.31558 
L 3719.792966 615.57984 
L 3726.193835 582.328883 
L 3732.594704 615.578962 
L 3735.818182 573.068708 
L 3735.818182 573.068708 
" clip-path="url(#p7861b1779b)" style="fill: none; stroke: #1f77b4; stroke-width: 1.5; stroke-linecap: square"/>
   </g>
   <g id="patch_3">
    <path d="M 540 640.8 
L 540 86.4 
" style="fill: none; stroke: #000000; stroke-width: 0.8; stroke-linejoin: miter; stroke-linecap: square"/>
   </g>
   <g id="patch_4">
    <path d="M 3888 640.8 
L 3888 86.4 
" style="fill: none; stroke: #000000; stroke-width: 0.8; stroke-linejoin: miter; stroke-linecap: square"/>
   </g>
   <g id="patch_5">
    <path d="M 540 640.8 
L 3888 640.8 
" style="fill: none; stroke: #000000; stroke-width: 0.8; stroke-linejoin: miter; stroke-linecap: square"/>
   </g>
   <g id="patch_6">
    <path d="M 540 86.4 
L 3888 86.4 
" style="fill: none; stroke: #000000; stroke-width: 0.8; stroke-linejoin: miter; stroke-linecap: square"/>
   </g>
   <g id="text_15">
    <!-- Power Profile -->
    <g transform="translate(2175.302813 80.4) scale(0.12 -0.12)">
     <defs>
      <path id="DejaVuSans-66" d="M 2375 4863 
L 2375 4384 
L 1825 4384 
Q 1516 4384 1395 4259 
Q 1275 4134 1275 3809 
L 1275 3500 
L 2222 3500 
L 2222 3053 
L 1275 3053 
L 1275 0 
L 697 0 
L 697 3053 
L 147 3053 
L 147 3500 
L 697 3500 
L 697 3744 
Q 697 4328 969 4595 
Q 1241 4863 1831 4863 
L 2375 4863 
z
" transform="scale(0.015625)"/>
     </defs>
     <use xlink:href="#DejaVuSans-50"/>
     <use xlink:href="#DejaVuSans-6f" x="56.677734"/>
     <use xlink:href="#DejaVuSans-77" x="117.859375"/>
     <use xlink:href="#DejaVuSans-65" x="199.646484"/>
     <use xlink:href="#DejaVuSans-72" x="261.169922"/>
     <use xlink:href="#DejaVuSans-20" x="302.283203"/>
     <use xlink:href="#DejaVuSans-50" x="334.070312"/>
     <use xlink:href="#DejaVuSans-72" x="392.623047"/>
     <use xlink:href="#DejaVuSans-6f" x="431.486328"/>
     <use xlink:href="#DejaVuSans-66" x="492.667969"/>
     <use xlink:href="#DejaVuSans-69" x="527.873047"/>
     <use xlink:href="#DejaVuSans-6c" x="555.65625"/>
     <use xlink:href="#DejaVuSans-65" x="583.439453"/>
    </g>
   </g>
  </g>
 </g>
 <defs>
  <clipPath id="p7861b1779b">
   <rect x="540" y="86.4" width="3348" height="554.4"/>
  </clipPath>
 </defs>
</svg>
